<svg width="5440" height="1080" viewBox="0 0 5440 1080" fill="none" xmlns="http://www.w3.org/2000/svg">
<path d="M813.948 468.112C798.788 483.364 787.18 501.772 779.948 522.02C772.716 542.272 770.04 563.868 772.108 585.272L771.388 584.552C773.516 609.748 770.12 635.1 761.436 658.848C752.752 682.592 738.988 704.156 721.112 722.036C703.232 739.912 681.668 753.676 657.924 762.356C634.176 771.04 608.824 774.44 583.628 772.312L584.348 773.032C554.212 770.228 523.944 776.784 497.668 791.812C471.396 806.84 450.396 829.604 437.536 857.004C424.676 884.404 420.576 915.1 425.804 944.916C431.028 974.728 445.32 1002.2 466.732 1023.6C488.144 1044.99 515.632 1059.26 545.448 1064.45C575.268 1069.65 605.96 1065.52 633.348 1052.64C660.736 1039.75 683.484 1018.74 698.484 992.448C713.488 966.16 720.02 935.888 717.188 905.752L717.948 906.472C715.82 881.28 719.22 855.924 727.904 832.176C736.588 808.432 750.348 786.868 768.224 768.988C786.104 751.112 807.668 737.348 831.412 728.668C855.16 719.984 880.516 716.584 905.708 718.712L904.948 717.992C929.568 720.208 954.344 716.168 976.988 706.256C999.632 696.344 1019.4 680.876 1034.48 661.288C1049.55 641.7 1059.44 618.62 1063.22 594.196C1066.99 569.768 1064.54 544.784 1056.1 521.552C1047.65 498.324 1033.48 477.604 1014.88 461.312C996.296 445.02 973.896 433.684 949.76 428.356C925.624 423.028 900.536 423.876 876.816 430.824C853.096 437.776 831.512 450.6 814.068 468.112H813.948Z" fill="#3D4852"/>
<path d="M518.872 678.732L518.112 678.012C539.528 680.168 561.152 677.54 581.424 670.316C601.696 663.092 620.112 651.452 635.336 636.24C650.56 621.028 662.212 602.624 669.452 582.356C676.692 562.088 679.336 540.464 677.192 519.052L677.952 519.772C675.828 494.576 679.224 469.224 687.908 445.476C696.592 421.732 710.352 400.168 728.232 382.288C746.108 364.41 767.672 350.649 791.42 341.965C815.164 333.281 840.52 329.884 865.712 332.011L864.952 331.291C895.092 334.121 925.372 327.586 951.66 312.575C977.948 297.564 998.964 274.81 1011.85 247.415C1024.73 220.02 1028.84 189.319 1023.64 159.499C1018.42 129.679 1004.14 102.191 982.74 80.786C961.332 59.3804 933.844 45.0992 904.024 39.89C874.204 34.6808 843.504 38.7973 816.108 51.678C788.716 64.5588 765.96 85.5768 750.948 111.865C735.94 138.153 729.404 168.432 732.232 198.571L731.512 197.811C733.648 223.006 730.256 248.364 721.572 272.113C712.892 295.862 699.132 317.43 681.252 335.309C663.372 353.189 641.804 366.95 618.056 375.631C594.308 384.312 568.948 387.705 543.752 385.571L544.472 386.331C523.06 384.173 501.436 386.801 481.164 394.025C460.888 401.248 442.476 412.888 427.252 428.1C412.028 443.312 400.376 461.716 393.136 481.984C385.896 502.252 383.252 523.876 385.394 545.292L384.674 544.572C386.793 569.764 383.391 595.116 374.705 618.856C366.019 642.6 352.257 664.16 334.381 682.04C316.504 699.916 294.942 713.676 271.2 722.364C247.458 731.048 222.106 734.452 196.914 732.332L197.634 733.052C167.494 730.22 137.216 736.756 110.927 751.768C84.6392 766.776 63.6212 789.532 50.7408 816.928C37.8599 844.32 33.7433 875.024 38.9525 904.844C44.1616 934.664 58.4432 962.152 79.8484 983.556C101.254 1004.96 128.741 1019.24 158.562 1024.45C188.382 1029.66 219.083 1025.54 246.478 1012.66C273.872 999.784 296.627 978.764 311.638 952.476C326.648 926.188 333.184 895.912 330.354 865.772L331.114 866.492C328.987 841.296 332.384 815.944 341.068 792.196C349.751 768.452 363.512 746.888 381.391 729.008C399.269 711.132 420.832 697.368 444.58 688.684C468.324 680 493.68 676.604 518.872 678.732Z" fill="#3D4852"/>
<path d="M250.796 598.44C265.957 583.192 277.564 564.784 284.79 544.532C292.015 524.28 294.681 502.68 292.596 481.28L293.356 482C291.228 456.796 294.626 431.436 303.314 407.684C312.003 383.932 325.772 362.363 343.659 344.483C361.546 326.604 383.121 312.844 406.876 304.166C430.632 295.488 455.996 292.1 481.196 294.239L480.436 293.519C510.564 296.342 540.832 289.802 567.108 274.792C593.384 259.783 614.388 237.034 627.264 209.648C640.136 182.262 644.248 151.572 639.04 121.762C633.832 91.9532 619.552 64.4764 598.156 43.0788C576.76 21.6812 549.28 7.40448 519.472 2.19553C489.664 -3.01342 458.972 1.09901 431.588 13.972C404.2 26.8449 381.452 47.8516 366.442 74.1276C351.433 100.404 344.893 130.67 347.716 160.799L346.996 160.079C349.123 185.273 345.726 210.628 337.042 234.373C328.358 258.119 314.597 279.683 296.718 297.562C278.84 315.44 257.276 329.201 233.53 337.885C209.784 346.568 184.43 349.966 159.236 347.839L159.956 348.559C135.339 346.351 110.562 350.393 87.9232 360.31C65.284 370.227 45.5144 385.698 30.4458 405.288C15.3774 424.88 5.49792 447.96 1.7229 472.384C-2.05211 496.812 0.399449 521.792 8.85044 545.02C17.3014 568.248 31.4784 588.964 50.0676 605.252C68.6568 621.54 91.0568 632.872 115.192 638.2C139.327 643.528 164.416 642.676 188.135 635.724C211.853 628.776 233.434 615.952 250.876 598.44H250.796Z" fill="#3D4852"/>
<path d="M1489.86 199.473H1608.66V777.592H1489.86V199.473Z" fill="#3D4852"/>
<path d="M1675.94 579.644C1675.78 538.1 1687.94 497.44 1710.9 462.816C1733.86 428.188 1766.59 401.16 1804.92 385.144C1843.26 369.13 1885.48 364.854 1926.25 372.857C1967.02 380.86 2004.5 400.784 2033.93 430.1C2063.37 459.42 2083.44 496.816 2091.61 537.552C2099.77 578.284 2095.67 620.528 2079.81 658.928C2063.94 697.328 2037.04 730.156 2002.51 753.256C1967.98 776.356 1927.37 788.684 1885.82 788.684C1858.24 789 1830.88 783.816 1805.33 773.432C1779.78 763.048 1756.56 747.676 1737.01 728.212C1717.47 708.748 1702.01 685.588 1691.52 660.076C1681.04 634.568 1675.74 607.224 1675.94 579.644ZM1976.9 579.644C1976.41 561.736 1970.64 544.372 1960.33 529.724C1950.02 515.072 1935.62 503.788 1918.93 497.276C1902.24 490.764 1884 489.32 1866.5 493.116C1848.99 496.916 1832.99 505.792 1820.5 518.632C1808.01 531.476 1799.58 547.716 1796.27 565.32C1792.96 582.928 1794.91 601.116 1801.88 617.62C1808.85 634.124 1820.53 648.204 1835.46 658.108C1850.39 668.008 1867.91 673.288 1885.82 673.284C1898.09 673.612 1910.3 671.396 1921.66 666.772C1933.03 662.148 1943.32 655.22 1951.88 646.42C1960.44 637.624 1967.08 627.148 1971.38 615.656C1975.69 604.16 1977.57 591.9 1976.9 579.644Z" fill="#3D4852"/>
<path d="M2569.18 381.634V757.636C2569.18 890.676 2465.42 946.916 2360.1 946.916C2323.02 949.688 2285.89 942.2 2252.78 925.264C2219.68 908.332 2191.88 882.608 2172.42 850.916L2273.78 792.316C2281.96 808.836 2294.99 822.464 2311.12 831.376C2327.26 840.292 2345.73 844.064 2364.06 842.196C2375.78 843.82 2387.72 842.788 2398.99 839.176C2410.25 835.564 2420.56 829.464 2429.16 821.328C2437.75 813.196 2444.4 803.232 2448.62 792.18C2452.84 781.128 2454.52 769.264 2453.54 757.476V721.276C2439.63 738.296 2421.93 751.82 2401.84 760.76C2381.76 769.7 2359.86 773.808 2337.9 772.756C2285.66 771.108 2236.1 749.192 2199.72 711.652C2163.35 674.112 2143.01 623.888 2143.01 571.616C2143.01 519.34 2163.35 469.116 2199.72 431.576C2236.1 394.036 2285.66 372.122 2337.9 370.474C2359.86 369.421 2381.76 373.529 2401.84 382.469C2421.93 391.409 2439.63 404.932 2453.54 421.956V381.554L2569.18 381.634ZM2453.58 571.676C2454.38 552.528 2449.43 533.58 2439.37 517.272C2429.31 500.964 2414.6 488.04 2397.13 480.16C2379.66 472.284 2360.24 469.816 2341.36 473.072C2322.47 476.328 2304.99 485.16 2291.17 498.432C2277.35 511.704 2267.82 528.812 2263.8 547.548C2259.78 566.284 2261.46 585.796 2268.63 603.568C2275.8 621.34 2288.12 636.56 2304 647.272C2319.89 657.984 2338.62 663.696 2357.78 663.676C2370.27 664.544 2382.79 662.792 2394.56 658.528C2406.32 654.264 2417.06 647.584 2426.08 638.916C2435.11 630.252 2442.22 619.788 2446.96 608.208C2451.69 596.628 2453.95 584.18 2453.58 571.676Z" fill="#3D4852"/>
<path d="M2636.47 579.644C2636.3 538.1 2648.47 497.44 2671.43 462.816C2694.39 428.188 2727.11 401.16 2765.45 385.144C2803.78 369.13 2846.01 364.854 2886.78 372.857C2927.55 380.86 2965.02 400.784 2994.46 430.1C3023.9 459.42 3043.97 496.816 3052.13 537.552C3060.3 578.284 3056.19 620.528 3040.33 658.928C3024.47 697.328 2997.57 730.156 2963.04 753.256C2928.51 776.356 2887.9 788.684 2846.35 788.684C2818.77 789 2791.41 783.816 2765.86 773.432C2740.31 763.048 2717.08 747.676 2697.54 728.212C2678 708.748 2662.53 685.588 2652.05 660.076C2641.56 634.568 2636.27 607.224 2636.47 579.644ZM2937.43 579.644C2936.94 561.736 2931.17 544.372 2920.86 529.724C2910.55 515.072 2896.15 503.788 2879.46 497.276C2862.77 490.764 2844.53 489.32 2827.02 493.116C2809.52 496.916 2793.52 505.792 2781.03 518.632C2768.54 531.476 2760.11 547.716 2756.8 565.32C2753.48 582.928 2755.44 601.116 2762.4 617.62C2769.38 634.124 2781.06 648.204 2795.99 658.108C2810.92 668.008 2828.44 673.288 2846.35 673.284C2858.62 673.612 2870.82 671.396 2882.19 666.772C2893.56 662.148 2903.85 655.22 2912.4 646.42C2920.96 637.624 2927.6 627.148 2931.91 615.656C2936.22 604.16 2938.1 591.9 2937.43 579.644Z" fill="#3D4852"/>
<path d="M3111.62 275.518C3111.62 261.42 3115.8 247.639 3123.64 235.917C3131.47 224.196 3142.6 215.059 3155.62 209.664C3168.65 204.269 3182.98 202.858 3196.81 205.608C3210.64 208.358 3223.34 215.147 3233.3 225.116C3243.27 235.084 3250.06 247.785 3252.81 261.612C3255.56 275.439 3254.15 289.771 3248.76 302.796C3243.36 315.821 3234.22 326.953 3222.5 334.786C3210.78 342.618 3197 346.798 3182.9 346.798C3164.06 346.611 3146.03 339.041 3132.7 325.714C3119.38 312.386 3111.81 294.365 3111.62 275.518ZM3123.62 381.638H3242.46V777.64H3123.46L3123.62 381.638Z" fill="#3D4852"/>
<path d="M3755.44 579.632C3756.81 605.804 3752.99 631.988 3744.21 656.68C3735.43 681.372 3721.85 704.084 3704.26 723.512C3686.67 742.94 3665.42 758.696 3641.71 769.88C3618.01 781.06 3592.33 787.448 3566.16 788.672C3544.14 789.872 3522.13 786.16 3501.73 777.804C3481.33 769.448 3463.04 756.652 3448.2 740.352V935.992H3329.4V381.633H3448.2V418.832C3463.05 402.544 3481.34 389.762 3501.74 381.412C3522.14 373.061 3544.14 369.352 3566.16 370.553C3592.34 371.771 3618.02 378.156 3641.73 389.34C3665.44 400.524 3686.7 416.284 3704.29 435.716C3721.88 455.148 3735.46 477.868 3744.24 502.568C3753.01 527.264 3756.82 553.456 3755.44 579.632ZM3636.64 579.632C3636.17 561.1 3630.25 543.116 3619.62 527.932C3608.98 512.744 3594.1 501.036 3576.84 494.264C3559.59 487.492 3540.71 485.96 3522.59 489.864C3504.47 493.764 3487.9 502.924 3474.95 516.2C3462.01 529.472 3453.27 546.268 3449.82 564.484C3446.38 582.7 3448.38 601.528 3455.59 618.608C3462.79 635.692 3474.87 650.268 3490.32 660.52C3505.77 670.768 3523.9 676.236 3542.44 676.232C3555.16 676.8 3567.86 674.668 3579.71 669.98C3591.56 665.296 3602.28 658.156 3611.18 649.036C3620.07 639.916 3626.94 629.016 3631.32 617.056C3635.71 605.096 3637.52 592.34 3636.64 579.632Z" fill="#3D4852"/>
<path d="M4122.04 658.796C4122.04 749.876 4042.88 788.676 3957.35 788.676C3922.8 791.804 3888.1 784.496 3857.74 767.696C3827.39 750.896 3802.77 725.376 3787.07 694.436L3889.99 635.836C3894.15 650.136 3903.1 662.58 3915.33 671.08C3927.56 679.584 3942.33 683.636 3957.19 682.556C3985.67 682.556 3999.95 673.836 3999.95 658.036C3999.95 614.436 3805.11 637.436 3805.11 500.436C3805.11 414.076 3877.99 370.555 3960.35 370.555C3991.31 369.575 4021.96 376.919 4049.12 391.82C4076.28 406.72 4098.96 428.636 4114.76 455.276L4013.4 509.916C4008.96 499.544 4001.56 490.708 3992.11 484.512C3982.68 478.316 3971.64 475.036 3960.35 475.076C3939.75 475.076 3927.07 483.076 3927.07 497.236C3927.23 542.396 4122.04 512.276 4122.04 658.796Z" fill="#3D4852"/>
<path d="M4556 381.641V777.64H4437.2V740.4C4423.48 756.832 4406.08 769.78 4386.4 778.18C4366.72 786.58 4345.36 790.192 4324 788.72C4244 788.72 4176 731.72 4176 624.72V381.641H4294.8V607.32C4293.8 616.752 4294.88 626.288 4297.96 635.26C4301 644.236 4306 652.436 4312.56 659.288C4319.12 666.14 4327.08 671.484 4335.92 674.94C4344.72 678.4 4354.2 679.896 4363.68 679.32C4407.24 679.32 4437.32 654 4437.32 597.76V381.761L4556 381.641Z" fill="#3D4852"/>
<path d="M5237.2 534.492V777.612H5118.4V544.772C5118.4 505.172 5099.4 479.852 5061.4 479.852C5021.8 479.852 4999.6 507.572 4999.6 554.292V777.612H4880.84V544.772C4880.84 505.172 4861.84 479.852 4823.8 479.852C4784.2 479.852 4762.04 507.572 4762.04 554.292V777.612H4643.24V381.61H4762.04V418.012C4774.32 401.86 4790.52 389.056 4809.04 380.762C4827.56 372.468 4847.88 368.95 4868.16 370.53C4888.48 369.536 4908.72 373.826 4926.88 382.981C4945.08 392.136 4960.56 405.844 4971.88 422.772C4985.04 405.064 5002.48 390.984 5022.56 381.848C5042.64 372.712 5064.72 368.818 5086.72 370.53C5177.64 370.57 5237.2 435.492 5237.2 534.492Z" fill="#3D4852"/>
<path d="M5337.68 379.21C5386.36 379.21 5425.84 339.74 5425.84 291.05C5425.84 242.361 5386.36 202.891 5337.68 202.891C5289 202.891 5249.52 242.361 5249.52 291.05C5249.52 339.74 5289 379.21 5337.68 379.21Z" fill="#3D4852"/>
</svg>
