<svg width="136" height="27" viewBox="0 0 136 27" fill="none" xmlns="http://www.w3.org/2000/svg">
<path d="M20.3487 11.7028C19.9697 12.0841 19.6795 12.5443 19.4987 13.0505C19.3179 13.5568 19.251 14.0967 19.3027 14.6318L19.2847 14.6138C19.3379 15.2437 19.253 15.8775 19.0359 16.4712C18.8188 17.0648 18.4747 17.6039 18.0278 18.0509C17.5808 18.4978 17.0417 18.8419 16.4481 19.0589C15.8544 19.276 15.2206 19.361 14.5907 19.3078L14.6087 19.3258C13.8553 19.2557 13.0986 19.4196 12.4417 19.7953C11.7849 20.171 11.2599 20.7401 10.9384 21.4251C10.6169 22.1101 10.5144 22.8775 10.6451 23.6229C10.7757 24.3682 11.133 25.0551 11.6683 25.5899C12.2036 26.1247 12.8908 26.4814 13.6362 26.6113C14.3817 26.7413 15.149 26.6381 15.8337 26.316C16.5184 25.9938 17.0871 25.4684 17.4621 24.8112C17.8372 24.154 18.0005 23.3972 17.9297 22.6438L17.9487 22.6618C17.8955 22.032 17.9805 21.3981 18.1976 20.8044C18.4147 20.2108 18.7587 19.6717 19.2056 19.2247C19.6526 18.7778 20.1917 18.4337 20.7853 18.2167C21.379 17.9996 22.0129 17.9146 22.6427 17.9678L22.6237 17.9498C23.2392 18.0052 23.8586 17.9042 24.4247 17.6564C24.9908 17.4086 25.4851 17.0219 25.8619 16.5322C26.2388 16.0425 26.4859 15.4655 26.5804 14.8549C26.6748 14.2442 26.6136 13.6196 26.4024 13.0388C26.1912 12.4581 25.8369 11.9401 25.3721 11.5328C24.9074 11.1255 24.3474 10.8421 23.744 10.7089C23.1406 10.5757 22.5134 10.5969 21.9204 10.7706C21.3274 10.9444 20.7878 11.265 20.3517 11.7028H20.3487Z" fill="#124C9A"/>
<path d="M12.9718 16.9683L12.9528 16.9503C13.4882 17.0042 14.0288 16.9385 14.5356 16.7579C15.0424 16.5773 15.5028 16.2863 15.8834 15.906C16.264 15.5257 16.5553 15.0656 16.7363 14.5589C16.9173 14.0522 16.9834 13.5116 16.9298 12.9763L16.9488 12.9943C16.8957 12.3644 16.9806 11.7306 17.1977 11.1369C17.4148 10.5433 17.7588 10.0042 18.2058 9.55721C18.6527 9.11025 19.1918 8.76622 19.7855 8.54913C20.3791 8.33203 21.013 8.2471 21.6428 8.30027L21.6238 8.28227C22.3773 8.35303 23.1343 8.18964 23.7915 7.81437C24.4487 7.43911 24.9741 6.87025 25.2962 6.18538C25.6182 5.50051 25.7211 4.73298 25.5909 3.98747C25.4606 3.24197 25.1036 2.55478 24.5685 2.01965C24.0333 1.48451 23.3461 1.12748 22.6006 0.997251C21.8551 0.867021 21.0876 0.969933 20.4027 1.29195C19.7179 1.61397 19.149 2.13942 18.7737 2.79662C18.3985 3.45383 18.2351 4.21079 18.3058 4.96427L18.2878 4.94527C18.3412 5.57516 18.2564 6.20911 18.0393 6.80283C17.8223 7.39655 17.4783 7.93574 17.0313 8.38273C16.5843 8.82972 16.0451 9.17375 15.4514 9.39078C14.8577 9.60781 14.2237 9.69262 13.5938 9.63927L13.6118 9.65827C13.0765 9.60433 12.5359 9.67003 12.0291 9.85063C11.5222 10.0312 11.0619 10.3222 10.6813 10.7025C10.3007 11.0828 10.0094 11.5429 9.82839 12.0496C9.64741 12.5563 9.5813 13.0969 9.63484 13.6323L9.61684 13.6143C9.66983 14.2441 9.58478 14.8779 9.36763 15.4714C9.15047 16.065 8.80643 16.604 8.35952 17.051C7.9126 17.4979 7.37356 17.8419 6.78 18.0591C6.18644 18.2762 5.55265 18.3613 4.92284 18.3083L4.94084 18.3263C4.18736 18.2555 3.43039 18.4189 2.77318 18.7942C2.11598 19.1694 1.59053 19.7383 1.26852 20.4232C0.946497 21.108 0.843583 21.8756 0.973813 22.6211C1.10404 23.3666 1.46108 24.0538 1.99621 24.5889C2.53135 25.124 3.21853 25.4811 3.96404 25.6113C4.70955 25.7415 5.47708 25.6386 6.16195 25.3166C6.84681 24.9946 7.41568 24.4691 7.79094 23.8119C8.1662 23.1547 8.3296 22.3978 8.25884 21.6443L8.27784 21.6623C8.22467 21.0324 8.3096 20.3986 8.52669 19.8049C8.74378 19.2113 9.08781 18.6722 9.53477 18.2252C9.98173 17.7783 10.5208 17.4342 11.1145 17.2171C11.7081 17 12.342 16.9151 12.9718 16.9683Z" fill="#124C9A"/>
<path d="M6.2699 14.961C6.64892 14.5798 6.9391 14.1196 7.11974 13.6133C7.30038 13.107 7.36702 12.567 7.3149 12.032L7.3339 12.05C7.28069 11.4199 7.36565 10.7859 7.58286 10.1921C7.80007 9.5983 8.14429 9.05907 8.59147 8.61208C9.03865 8.16509 9.57802 7.8211 10.1719 7.60415C10.7658 7.38719 11.3999 7.30249 12.0299 7.35597L12.0109 7.33797C12.7641 7.40854 13.5208 7.24505 14.1777 6.86981C14.8346 6.49458 15.3597 5.92585 15.6816 5.2412C16.0034 4.55654 16.1062 3.78929 15.976 3.04406C15.8458 2.29883 15.4888 1.61191 14.9539 1.07697C14.419 0.542031 13.732 0.185112 12.9868 0.0548883C12.2416 -0.0753355 11.4743 0.0274752 10.7897 0.349299C10.105 0.671123 9.53629 1.19629 9.16105 1.85319C8.78582 2.5101 8.62233 3.26675 8.6929 4.01997L8.6749 4.00197C8.72807 4.63182 8.64314 5.26569 8.42604 5.85933C8.20895 6.45297 7.86492 6.99208 7.41796 7.43904C6.97101 7.886 6.43189 8.23003 5.83825 8.44712C5.24461 8.66421 4.61075 8.74914 3.9809 8.69597L3.9989 8.71397C3.38347 8.65878 2.76406 8.75983 2.19808 9.00775C1.6321 9.25567 1.13786 9.64244 0.761145 10.1322C0.384435 10.622 0.137448 11.199 0.0430726 11.8096C-0.0513028 12.4203 0.00998625 13.0448 0.221261 13.6255C0.432535 14.2062 0.78696 14.7241 1.25169 15.1313C1.71642 15.5385 2.27642 15.8218 2.8798 15.955C3.48317 16.0882 4.1104 16.0669 4.70337 15.8931C5.29633 15.7194 5.83584 15.3988 6.2719 14.961H6.2699Z" fill="#124C9A"/>
<path d="M37.2466 4.98682H40.2166V19.4398H37.2466V4.98682Z" fill="#124C9A"/>
<path d="M41.8986 14.4911C41.8944 13.4525 42.1986 12.436 42.7726 11.5704C43.3466 10.7047 44.1647 10.029 45.123 9.6286C46.0814 9.22825 47.1371 9.12134 48.1563 9.32142C49.1755 9.5215 50.1124 10.0196 50.8483 10.7525C51.5842 11.4855 52.086 12.4204 52.2902 13.4388C52.4943 14.4571 52.3917 15.5132 51.9952 16.4732C51.5986 17.4332 50.9261 18.2539 50.0628 18.8314C49.1995 19.4089 48.1842 19.7171 47.1456 19.7171C46.4561 19.725 45.772 19.5954 45.1332 19.3358C44.4945 19.0762 43.9139 18.6919 43.4253 18.2053C42.9368 17.7187 42.5502 17.1397 42.288 16.5019C42.0259 15.8642 41.8935 15.1806 41.8986 14.4911ZM49.4226 14.4911C49.4102 14.0434 49.2661 13.6093 49.0083 13.2431C48.7506 12.8768 48.3906 12.5947 47.9733 12.4319C47.5561 12.2691 47.1001 12.233 46.6624 12.3279C46.2247 12.4229 45.8248 12.6448 45.5125 12.9658C45.2002 13.2869 44.9895 13.6929 44.9067 14.133C44.8239 14.5732 44.8727 15.0279 45.047 15.4405C45.2212 15.8531 45.5133 16.2051 45.8865 16.4527C46.2598 16.7002 46.6977 16.8322 47.1456 16.8321C47.4523 16.8403 47.7574 16.7849 48.0416 16.6693C48.3258 16.5537 48.583 16.3805 48.797 16.1605C49.0109 15.9406 49.1769 15.6787 49.2846 15.3914C49.3923 15.104 49.4393 14.7975 49.4226 14.4911Z" fill="#124C9A"/>
<path d="M64.2296 9.54085V18.9409C64.2296 22.2669 61.6356 23.6729 59.0026 23.6729C58.0756 23.7422 57.1473 23.555 56.3196 23.1316C55.492 22.7083 54.7969 22.0652 54.3106 21.2729L56.8446 19.8079C57.049 20.2209 57.3747 20.5616 57.778 20.7844C58.1814 21.0073 58.6432 21.1016 59.1016 21.0549C59.3946 21.0955 59.693 21.0697 59.9747 20.9794C60.2563 20.8891 60.5141 20.7366 60.7289 20.5332C60.9437 20.3299 61.11 20.0808 61.2156 19.8045C61.3211 19.5282 61.3631 19.2316 61.3386 18.9369V18.0319C60.9908 18.4574 60.5482 18.7955 60.0461 19.019C59.544 19.2425 58.9965 19.3452 58.4476 19.3189C57.1414 19.2777 55.9025 18.7298 54.9931 17.7913C54.0837 16.8528 53.5752 15.5972 53.5752 14.2904C53.5752 12.9835 54.0837 11.7279 54.9931 10.7894C55.9025 9.85089 57.1414 9.30305 58.4476 9.26185C58.9965 9.23551 59.544 9.33822 60.0461 9.56172C60.5482 9.78523 60.9908 10.1233 61.3386 10.5489V9.53885L64.2296 9.54085ZM61.3396 14.2919C61.3596 13.8132 61.2358 13.3395 60.9843 12.9318C60.7328 12.5241 60.365 12.201 59.9283 12.004C59.4916 11.8071 59.006 11.7454 58.5339 11.8268C58.0618 11.9082 57.6248 12.129 57.2793 12.4608C56.9338 12.7926 56.6955 13.2203 56.595 13.6887C56.4946 14.1571 56.5366 14.6449 56.7158 15.0892C56.8949 15.5335 57.2029 15.914 57.6001 16.1818C57.9973 16.4496 58.4656 16.5924 58.9446 16.5919C59.2567 16.6136 59.5698 16.5698 59.8639 16.4632C60.158 16.3566 60.4265 16.1896 60.6521 15.9729C60.8777 15.7563 61.0555 15.4947 61.1739 15.2052C61.2923 14.9157 61.3488 14.6045 61.3396 14.2919Z" fill="#124C9A"/>
<path d="M65.9118 14.4911C65.9076 13.4525 66.2118 12.436 66.7858 11.5704C67.3598 10.7047 68.1778 10.029 69.1362 9.6286C70.0946 9.22825 71.1503 9.12134 72.1695 9.32142C73.1887 9.5215 74.1256 10.0196 74.8615 10.7525C75.5974 11.4855 76.0992 12.4204 76.3033 13.4388C76.5075 14.4571 76.4048 15.5132 76.0083 16.4732C75.6118 17.4332 74.9393 18.2539 74.076 18.8314C73.2127 19.4089 72.1974 19.7171 71.1588 19.7171C70.4693 19.725 69.7852 19.5954 69.1464 19.3358C68.5077 19.0762 67.927 18.6919 67.4385 18.2053C66.95 17.7187 66.5633 17.1397 66.3012 16.5019C66.0391 15.8642 65.9067 15.1806 65.9118 14.4911ZM73.4358 14.4911C73.4234 14.0434 73.2793 13.6093 73.0215 13.2431C72.7638 12.8768 72.4038 12.5947 71.9865 12.4319C71.5693 12.2691 71.1133 12.233 70.6756 12.3279C70.2379 12.4229 69.8379 12.6448 69.5257 12.9658C69.2134 13.2869 69.0027 13.6929 68.9199 14.133C68.8371 14.5732 68.8859 15.0279 69.0601 15.4405C69.2344 15.8531 69.5264 16.2051 69.8997 16.4527C70.273 16.7002 70.7109 16.8322 71.1588 16.8321C71.4655 16.8403 71.7706 16.7849 72.0548 16.6693C72.339 16.5537 72.5962 16.3805 72.8101 16.1605C73.0241 15.9406 73.1901 15.6787 73.2978 15.3914C73.4055 15.104 73.4524 14.7975 73.4358 14.4911Z" fill="#124C9A"/>
<path d="M77.7905 6.88796C77.7905 6.53551 77.895 6.19098 78.0909 5.89793C78.2867 5.60489 78.565 5.37648 78.8906 5.2416C79.2162 5.10673 79.5745 5.07144 79.9202 5.1402C80.2659 5.20896 80.5834 5.37868 80.8326 5.6279C81.0818 5.87711 81.2515 6.19463 81.3203 6.54031C81.389 6.88598 81.3538 7.24428 81.2189 7.5699C81.084 7.89552 80.8556 8.17383 80.5626 8.36964C80.2695 8.56545 79.925 8.66996 79.5725 8.66996C79.1014 8.66527 78.6508 8.47602 78.3176 8.14284C77.9845 7.80966 77.7952 7.35912 77.7905 6.88796ZM78.0905 9.54096H81.0615V19.441H78.0865L78.0905 9.54096Z" fill="#124C9A"/>
<path d="M93.8859 14.4908C93.9202 15.1451 93.8248 15.7997 93.6053 16.417C93.3857 17.0343 93.0463 17.6021 92.6066 18.0878C92.1668 18.5735 91.6354 18.9674 91.0428 19.247C90.4503 19.5265 89.8083 19.6862 89.1539 19.7168C88.6035 19.7468 88.0533 19.654 87.5433 19.4451C87.0332 19.2362 86.576 18.9163 86.2049 18.5088V23.3998H83.2349V9.54082H86.2049V10.4708C86.5762 10.0636 87.0334 9.74404 87.5435 9.53529C88.0535 9.32653 88.6036 9.2338 89.1539 9.26382C89.8085 9.29428 90.4506 9.4539 91.0432 9.73349C91.6359 10.0131 92.1674 10.4071 92.6072 10.8929C93.047 11.3787 93.3864 11.9467 93.6059 12.5642C93.8253 13.1816 93.9205 13.8364 93.8859 14.4908ZM90.9159 14.4908C90.9043 14.0275 90.7563 13.5779 90.4904 13.1983C90.2245 12.8186 89.8526 12.5259 89.4211 12.3566C88.9897 12.1873 88.5178 12.149 88.0648 12.2466C87.6117 12.3441 87.1974 12.5731 86.8738 12.905C86.5503 13.2368 86.3317 13.6567 86.2456 14.1121C86.1595 14.5675 86.2096 15.0382 86.3897 15.4652C86.5698 15.8923 86.8718 16.2567 87.258 16.513C87.6442 16.7692 88.0974 16.9059 88.5609 16.9058C88.879 16.92 89.1966 16.8667 89.4928 16.7495C89.789 16.6324 90.057 16.4539 90.2794 16.2259C90.5017 15.9979 90.6734 15.7254 90.7831 15.4264C90.8928 15.1274 90.938 14.8085 90.9159 14.4908Z" fill="#124C9A"/>
<path d="M103.051 16.4699C103.051 18.7469 101.072 19.7169 98.9338 19.7169C98.0699 19.7951 97.2025 19.6124 96.4436 19.1924C95.6847 18.7724 95.0692 18.1344 94.6768 17.3609L97.2498 15.8959C97.3538 16.2534 97.5774 16.5645 97.8832 16.777C98.1889 16.9896 98.5583 17.0909 98.9298 17.0639C99.6418 17.0639 99.9988 16.8459 99.9988 16.4509C99.9988 15.3609 95.1278 15.9359 95.1278 12.5109C95.1278 10.3519 96.9498 9.26389 99.0088 9.26389C99.7828 9.23939 100.549 9.42298 101.228 9.79551C101.907 10.168 102.474 10.7159 102.869 11.3819L100.335 12.7479C100.224 12.4886 100.039 12.2677 99.8028 12.1128C99.567 11.9579 99.2909 11.8759 99.0088 11.8769C98.4938 11.8769 98.1768 12.0769 98.1768 12.4309C98.1808 13.5599 103.051 12.8069 103.051 16.4699Z" fill="#124C9A"/>
<path d="M113.9 9.54102V19.441H110.93V18.51C110.587 18.9208 110.152 19.2445 109.66 19.4545C109.168 19.6645 108.634 19.7548 108.1 19.718C106.1 19.718 104.4 18.293 104.4 15.618V9.54102H107.37V15.183C107.345 15.4188 107.372 15.6572 107.449 15.8815C107.525 16.1059 107.65 16.3109 107.814 16.4822C107.978 16.6535 108.177 16.7871 108.398 16.8735C108.618 16.96 108.855 16.9974 109.092 16.983C110.181 16.983 110.933 16.35 110.933 14.944V9.54402L113.9 9.54102Z" fill="#124C9A"/>
<path d="M130.93 13.3623V19.4403H127.96V13.6193C127.96 12.6293 127.485 11.9963 126.535 11.9963C125.545 11.9963 124.99 12.6893 124.99 13.8573V19.4403H122.021V13.6193C122.021 12.6293 121.546 11.9963 120.595 11.9963C119.605 11.9963 119.051 12.6893 119.051 13.8573V19.4403H116.081V9.54026H119.051V10.4503C119.358 10.0465 119.763 9.72639 120.226 9.51904C120.689 9.31169 121.197 9.22375 121.704 9.26326C122.212 9.2384 122.718 9.34564 123.172 9.57452C123.627 9.8034 124.014 10.1461 124.297 10.5693C124.626 10.1266 125.062 9.77459 125.564 9.54619C126.066 9.31779 126.618 9.22045 127.168 9.26326C129.441 9.26426 130.93 10.8873 130.93 13.3623Z" fill="#124C9A"/>
<path d="M133.442 9.48026C134.659 9.48026 135.646 8.4935 135.646 7.27626C135.646 6.05903 134.659 5.07227 133.442 5.07227C132.225 5.07227 131.238 6.05903 131.238 7.27626C131.238 8.4935 132.225 9.48026 133.442 9.48026Z" fill="#124C9A"/>
</svg>
