<svg width="27" height="27" viewBox="0 0 27 27" fill="none" xmlns="http://www.w3.org/2000/svg">
<path d="M20.3487 11.7028C19.9697 12.0841 19.6795 12.5443 19.4987 13.0505C19.3179 13.5568 19.251 14.0967 19.3027 14.6318L19.2847 14.6138C19.3379 15.2437 19.253 15.8775 19.0359 16.4712C18.8188 17.0648 18.4747 17.6039 18.0278 18.0509C17.5808 18.4978 17.0417 18.8419 16.4481 19.0589C15.8544 19.276 15.2206 19.361 14.5907 19.3078L14.6087 19.3258C13.8553 19.2557 13.0986 19.4196 12.4417 19.7953C11.7849 20.171 11.2599 20.7401 10.9384 21.4251C10.6169 22.1101 10.5144 22.8775 10.6451 23.6229C10.7757 24.3682 11.133 25.0551 11.6683 25.5899C12.2036 26.1247 12.8908 26.4814 13.6362 26.6113C14.3817 26.7413 15.149 26.6381 15.8337 26.316C16.5184 25.9938 17.0871 25.4684 17.4621 24.8112C17.8372 24.154 18.0005 23.3972 17.9297 22.6438L17.9487 22.6618C17.8955 22.032 17.9805 21.3981 18.1976 20.8044C18.4147 20.2108 18.7587 19.6717 19.2056 19.2247C19.6526 18.7778 20.1917 18.4337 20.7853 18.2167C21.379 17.9996 22.0129 17.9146 22.6427 17.9678L22.6237 17.9498C23.2392 18.0052 23.8586 17.9042 24.4247 17.6564C24.9908 17.4086 25.4851 17.0219 25.8619 16.5322C26.2388 16.0425 26.4859 15.4655 26.5804 14.8549C26.6748 14.2442 26.6136 13.6196 26.4024 13.0388C26.1912 12.4581 25.8369 11.9401 25.3721 11.5328C24.9074 11.1255 24.3474 10.8421 23.744 10.7089C23.1406 10.5757 22.5134 10.5969 21.9204 10.7706C21.3274 10.9444 20.7878 11.265 20.3517 11.7028H20.3487Z" fill="#124C9A"/>
<path d="M12.9718 16.9683L12.9528 16.9503C13.4882 17.0042 14.0288 16.9385 14.5356 16.7579C15.0424 16.5773 15.5028 16.2863 15.8834 15.906C16.264 15.5257 16.5553 15.0656 16.7363 14.5589C16.9173 14.0522 16.9834 13.5116 16.9298 12.9763L16.9488 12.9943C16.8957 12.3644 16.9806 11.7306 17.1977 11.1369C17.4148 10.5433 17.7588 10.0042 18.2058 9.55721C18.6527 9.11025 19.1918 8.76622 19.7855 8.54913C20.3791 8.33203 21.013 8.2471 21.6428 8.30027L21.6238 8.28227C22.3773 8.35303 23.1343 8.18964 23.7915 7.81437C24.4487 7.43911 24.9741 6.87025 25.2962 6.18538C25.6182 5.50051 25.7211 4.73298 25.5909 3.98747C25.4606 3.24197 25.1036 2.55478 24.5685 2.01965C24.0333 1.48451 23.3461 1.12748 22.6006 0.997251C21.8551 0.867021 21.0876 0.969933 20.4027 1.29195C19.7179 1.61397 19.149 2.13942 18.7737 2.79662C18.3985 3.45383 18.2351 4.21079 18.3058 4.96427L18.2878 4.94527C18.3412 5.57516 18.2564 6.20911 18.0393 6.80283C17.8223 7.39655 17.4783 7.93574 17.0313 8.38273C16.5843 8.82972 16.0451 9.17375 15.4514 9.39078C14.8577 9.60781 14.2237 9.69262 13.5938 9.63927L13.6118 9.65827C13.0765 9.60433 12.5359 9.67003 12.0291 9.85063C11.5222 10.0312 11.0619 10.3222 10.6813 10.7025C10.3007 11.0828 10.0094 11.5429 9.82839 12.0496C9.64741 12.5563 9.5813 13.0969 9.63484 13.6323L9.61684 13.6143C9.66983 14.2441 9.58478 14.8779 9.36763 15.4714C9.15047 16.065 8.80643 16.604 8.35952 17.051C7.9126 17.4979 7.37356 17.8419 6.78 18.0591C6.18644 18.2762 5.55265 18.3613 4.92284 18.3083L4.94084 18.3263C4.18736 18.2555 3.43039 18.4189 2.77318 18.7942C2.11598 19.1694 1.59053 19.7383 1.26852 20.4232C0.946497 21.108 0.843583 21.8756 0.973813 22.6211C1.10404 23.3666 1.46108 24.0538 1.99621 24.5889C2.53135 25.124 3.21853 25.4811 3.96404 25.6113C4.70955 25.7415 5.47708 25.6386 6.16195 25.3166C6.84681 24.9946 7.41568 24.4691 7.79094 23.8119C8.1662 23.1547 8.3296 22.3978 8.25884 21.6443L8.27784 21.6623C8.22467 21.0324 8.3096 20.3986 8.52669 19.8049C8.74378 19.2113 9.08781 18.6722 9.53477 18.2252C9.98173 17.7783 10.5208 17.4342 11.1145 17.2171C11.7081 17 12.342 16.9151 12.9718 16.9683Z" fill="#124C9A"/>
<path d="M6.2699 14.961C6.64892 14.5798 6.9391 14.1196 7.11974 13.6133C7.30038 13.107 7.36702 12.567 7.3149 12.032L7.3339 12.05C7.28069 11.4199 7.36565 10.7859 7.58286 10.1921C7.80007 9.5983 8.14429 9.05907 8.59147 8.61208C9.03865 8.16509 9.57802 7.8211 10.1719 7.60415C10.7658 7.38719 11.3999 7.30249 12.0299 7.35597L12.0109 7.33797C12.7641 7.40854 13.5208 7.24505 14.1777 6.86981C14.8346 6.49458 15.3597 5.92585 15.6816 5.2412C16.0034 4.55654 16.1062 3.78929 15.976 3.04406C15.8458 2.29883 15.4888 1.61191 14.9539 1.07697C14.419 0.542031 13.732 0.185112 12.9868 0.0548883C12.2416 -0.0753355 11.4743 0.0274752 10.7897 0.349299C10.105 0.671123 9.53629 1.19629 9.16105 1.85319C8.78582 2.5101 8.62233 3.26675 8.6929 4.01997L8.6749 4.00197C8.72807 4.63182 8.64314 5.26569 8.42604 5.85933C8.20895 6.45297 7.86492 6.99208 7.41796 7.43904C6.97101 7.886 6.43189 8.23003 5.83825 8.44712C5.24461 8.66421 4.61075 8.74914 3.9809 8.69597L3.9989 8.71397C3.38347 8.65878 2.76406 8.75983 2.19808 9.00775C1.6321 9.25567 1.13786 9.64244 0.761145 10.1322C0.384435 10.622 0.137448 11.199 0.0430726 11.8096C-0.0513028 12.4203 0.00998625 13.0448 0.221261 13.6255C0.432535 14.2062 0.78696 14.7241 1.25169 15.1313C1.71642 15.5385 2.27642 15.8218 2.8798 15.955C3.48317 16.0882 4.1104 16.0669 4.70337 15.8931C5.29633 15.7194 5.83584 15.3988 6.2719 14.961H6.2699Z" fill="#124C9A"/>
</svg>
