<svg width="1080" height="1080" viewBox="0 0 1080 1080" fill="none" xmlns="http://www.w3.org/2000/svg">
<path d="M813.948 468.112C798.788 483.364 787.18 501.772 779.948 522.02C772.716 542.272 770.04 563.868 772.108 585.272L771.388 584.552C773.516 609.748 770.12 635.1 761.436 658.848C752.752 682.592 738.988 704.156 721.112 722.036C703.232 739.912 681.668 753.676 657.924 762.356C634.176 771.04 608.824 774.44 583.628 772.312L584.348 773.032C554.212 770.228 523.944 776.784 497.668 791.812C471.396 806.84 450.396 829.604 437.536 857.004C424.676 884.404 420.576 915.1 425.804 944.916C431.028 974.728 445.32 1002.2 466.732 1023.6C488.144 1044.99 515.632 1059.26 545.448 1064.45C575.268 1069.65 605.96 1065.52 633.348 1052.64C660.736 1039.75 683.484 1018.74 698.484 992.448C713.488 966.16 720.02 935.888 717.188 905.752L717.948 906.472C715.82 881.28 719.22 855.924 727.904 832.176C736.588 808.432 750.348 786.868 768.224 768.988C786.104 751.112 807.668 737.348 831.412 728.668C855.16 719.984 880.516 716.584 905.708 718.712L904.948 717.992C929.568 720.208 954.344 716.168 976.988 706.256C999.632 696.344 1019.4 680.876 1034.48 661.288C1049.55 641.7 1059.44 618.62 1063.22 594.196C1066.99 569.768 1064.54 544.784 1056.1 521.552C1047.65 498.324 1033.48 477.604 1014.88 461.312C996.296 445.02 973.896 433.684 949.76 428.356C925.624 423.028 900.536 423.876 876.816 430.824C853.096 437.776 831.512 450.6 814.068 468.112H813.948Z" fill="#3D4852"/>
<path d="M518.872 678.732L518.112 678.012C539.528 680.168 561.152 677.54 581.424 670.316C601.696 663.092 620.112 651.452 635.336 636.24C650.56 621.028 662.212 602.624 669.452 582.356C676.692 562.088 679.336 540.464 677.192 519.052L677.952 519.772C675.828 494.576 679.224 469.224 687.908 445.476C696.592 421.732 710.352 400.168 728.232 382.288C746.108 364.41 767.672 350.649 791.42 341.965C815.164 333.281 840.52 329.884 865.712 332.011L864.952 331.291C895.092 334.121 925.372 327.586 951.66 312.575C977.948 297.564 998.964 274.81 1011.85 247.415C1024.73 220.02 1028.84 189.319 1023.64 159.499C1018.42 129.679 1004.14 102.191 982.74 80.786C961.332 59.3804 933.844 45.0992 904.024 39.89C874.204 34.6808 843.504 38.7973 816.108 51.678C788.716 64.5588 765.96 85.5768 750.948 111.865C735.94 138.153 729.404 168.432 732.232 198.571L731.512 197.811C733.648 223.006 730.256 248.364 721.572 272.113C712.892 295.862 699.132 317.43 681.252 335.309C663.372 353.189 641.804 366.95 618.056 375.631C594.308 384.312 568.948 387.705 543.752 385.571L544.472 386.331C523.06 384.173 501.436 386.801 481.164 394.025C460.888 401.248 442.476 412.888 427.252 428.1C412.028 443.312 400.376 461.716 393.136 481.984C385.896 502.252 383.252 523.876 385.394 545.292L384.674 544.572C386.793 569.764 383.391 595.116 374.705 618.856C366.019 642.6 352.257 664.16 334.381 682.04C316.504 699.916 294.942 713.676 271.2 722.364C247.458 731.048 222.106 734.452 196.914 732.332L197.634 733.052C167.494 730.22 137.216 736.756 110.927 751.768C84.6392 766.776 63.6212 789.532 50.7408 816.928C37.8599 844.32 33.7433 875.024 38.9525 904.844C44.1616 934.664 58.4432 962.152 79.8484 983.556C101.254 1004.96 128.741 1019.24 158.562 1024.45C188.382 1029.66 219.083 1025.54 246.478 1012.66C273.872 999.784 296.627 978.764 311.638 952.476C326.648 926.188 333.184 895.912 330.354 865.772L331.114 866.492C328.987 841.296 332.384 815.944 341.068 792.196C349.751 768.452 363.512 746.888 381.391 729.008C399.269 711.132 420.832 697.368 444.58 688.684C468.324 680 493.68 676.604 518.872 678.732Z" fill="#3D4852"/>
<path d="M250.796 598.44C265.957 583.192 277.564 564.784 284.79 544.532C292.015 524.28 294.681 502.68 292.596 481.28L293.356 482C291.228 456.796 294.626 431.436 303.314 407.684C312.003 383.932 325.772 362.363 343.659 344.483C361.546 326.604 383.121 312.844 406.876 304.166C430.632 295.488 455.996 292.1 481.196 294.239L480.436 293.519C510.564 296.342 540.832 289.802 567.108 274.792C593.384 259.783 614.388 237.034 627.264 209.648C640.136 182.262 644.248 151.572 639.04 121.762C633.832 91.9532 619.552 64.4764 598.156 43.0788C576.76 21.6812 549.28 7.40448 519.472 2.19553C489.664 -3.01342 458.972 1.09901 431.588 13.972C404.2 26.8449 381.452 47.8516 366.442 74.1276C351.433 100.404 344.893 130.67 347.716 160.799L346.996 160.079C349.123 185.273 345.726 210.628 337.042 234.373C328.358 258.119 314.597 279.683 296.718 297.562C278.84 315.44 257.276 329.201 233.53 337.885C209.784 346.568 184.43 349.966 159.236 347.839L159.956 348.559C135.339 346.351 110.562 350.393 87.9232 360.31C65.284 370.227 45.5144 385.698 30.4458 405.288C15.3774 424.88 5.49792 447.96 1.7229 472.384C-2.05211 496.812 0.399449 521.792 8.85044 545.02C17.3014 568.248 31.4784 588.964 50.0676 605.252C68.6568 621.54 91.0568 632.872 115.192 638.2C139.327 643.528 164.416 642.676 188.135 635.724C211.853 628.776 233.434 615.952 250.876 598.44H250.796Z" fill="#3D4852"/>
</svg>
